<?xml version="1.0" encoding="UTF-8" standalone="no"?>
<svg width="126px" height="126px" viewBox="0 0 126 126" version="1.1" xmlns="http://www.w3.org/2000/svg" xmlns:xlink="http://www.w3.org/1999/xlink" xmlns:sketch="http://www.bohemiancoding.com/sketch/ns">
    <!-- Generator: Sketch 3.4.3 (16044) - http://www.bohemiancoding.com/sketch -->
    <title>health-kit + heart</title>
    <desc>Created with Sketch.</desc>
    <defs>
        <ellipse id="path-1" cx="62.7990431" cy="62.8425358" rx="62.7990431" ry="62.8425358"></ellipse>
    </defs>
    <g id="Page-1" stroke="none" stroke-width="1" fill="none" fill-rule="evenodd" sketch:type="MSPage">
        <g id="Tanzania" sketch:type="MSArtboardGroup" transform="translate(-1209.000000, -216.000000)">
            <g id="health-kit-+-heart" sketch:type="MSLayerGroup" transform="translate(1209.000000, 216.000000)">
                <g id="health-kit">
                    <mask id="mask-2" sketch:name="Mask" fill="white">
                        <use xlink:href="#path-1"></use>
                    </mask>
                    <use id="Mask" fill="#FFFFFF" sketch:type="MSShapeGroup" xlink:href="#path-1"></use>
                    <g mask="url(#mask-2)" fill="#EA3C51" sketch:type="MSShapeGroup">
                        <g transform="translate(17.942584, 21.994888)">
                            <path d="M66.958134,9.817751 C79.293569,9.817751 89.3861977,19.9359009 89.3861977,32.3025286 L89.3861977,59.0863957 C89.3861977,71.4530234 79.293569,81.5711733 66.958134,81.5711733 L23.016324,81.5711733 C10.6808889,81.5711733 0.588260279,71.4530234 0.588260279,59.0863957 L0.588260279,32.3025286 C0.588260279,19.9359009 10.6808889,9.817751 23.016324,9.817751 L66.958134,9.817751 L66.958134,9.817751 Z" id="Stroke-43"></path>
                            <path d="M58.6998355,0.183402193 L58.6998355,9.81737991 L54.2314176,9.81737991 L54.2314176,4.66386888 L35.7342459,4.66386888 L35.7342459,9.81737991 L31.2665756,9.81737991 L31.2665756,0.183402193 L58.6998355,0.183402193 L58.6998355,0.183402193 Z" id="Stroke-45"></path>
                        </g>
                    </g>
                </g>
                <g id="heart" transform="translate(44.000000, 51.000000)" sketch:type="MSShapeGroup">
                    <path d="M26.4463795,0.115784059 C23.5611928,0.115784059 20.9350566,1.1986515 18.9332738,2.96657879 C16.933096,1.1986515 14.3069598,0.115784059 11.4217731,0.115784059 C5.16090524,0.115784059 0.0848642227,5.16714182 0.0848642227,11.3991414 C0.0848642227,11.492123 0.0977043947,11.5819093 0.100272429,11.6723346 C0.0951363603,11.7522156 0.0848642227,11.8320967 0.0848642227,11.915173 C0.0848642227,22.2757445 18.9332738,34.737507 18.9332738,34.737507 C18.9332738,34.737507 37.7823254,22.2757445 37.7823254,11.915173 C37.7823254,11.8320967 37.7733373,11.7522156 37.7682012,11.6723346 C37.7707692,11.5819093 37.7823254,11.492123 37.7823254,11.3991414 C37.7823254,5.16714182 32.7072474,0.115784059 26.4463795,0.115784059 Z" id="Stroke-51" fill="#FFFFFF"></path>
                    <path d="M5.94258373,16.3143487 L8.44491629,16.2332897 L8.44491629,16.3145907 L9.40753865,13.1544971 L10.3708893,9.99488753 L11.33424,13.1544971 L12.2975907,16.3145907 L13.2609414,19.4744423 L14.2240493,22.6340519 L15.1866717,19.4744423 L16.1500224,16.3145907 L18.3789848,16.2332897 L19.2092921,13.7644968 L19.985945,11.2148869 L20.7630835,13.7644968 L21.5404648,16.3145907 L22.3173605,18.8642006 L23.0947418,21.4140525 L23.8723658,18.8642006 L24.6492616,16.3145907 L25.2768476,14.2556905 L25.9039482,12.1970324 L26.5320198,14.2556905 L27.1598486,16.3145907 L27.7871919,18.2921898 L28.4145352,20.350848 L29.0421213,18.2921898 L29.6694646,16.2332897 L32.2125842,16.2332897" id="Stroke-53" stroke="#FE5562" stroke-width="1.79425837"></path>
                </g>
            </g>
        </g>
    </g>
</svg>