<?xml version="1.0" encoding="UTF-8" standalone="no"?>
<svg width="150px" height="150px" viewBox="0 0 150 150" version="1.1" xmlns="http://www.w3.org/2000/svg" xmlns:xlink="http://www.w3.org/1999/xlink" xmlns:sketch="http://www.bohemiancoding.com/sketch/ns">
    <!-- Generator: Sketch 3.4.3 (16044) - http://www.bohemiancoding.com/sketch -->
    <title>health-kit + heart</title>
    <desc>Created with Sketch.</desc>
    <defs>
        <ellipse id="path-1" cx="74.7607656" cy="74.8125426" rx="74.7607656" ry="74.8125426"></ellipse>
    </defs>
    <g id="Page-1" stroke="none" stroke-width="1" fill="none" fill-rule="evenodd" sketch:type="MSPage">
        <g id="Tanzania" sketch:type="MSArtboardGroup" transform="translate(-1043.000000, -115.000000)">
            <g id="health-kit-+-heart" sketch:type="MSLayerGroup" transform="translate(1043.000000, 115.000000)">
                <g id="health-kit">
                    <mask id="mask-2" sketch:name="Mask" fill="white">
                        <use xlink:href="#path-1"></use>
                    </mask>
                    <use id="Mask" fill="#FFFFFF" sketch:type="MSShapeGroup" xlink:href="#path-1"></use>
                    <g mask="url(#mask-2)" fill="#EA3C51" sketch:type="MSShapeGroup">
                        <g transform="translate(21.360219, 26.184390)">
                            <path d="M79.7120643,11.6877988 C94.397106,11.6877988 106.41214,23.7332154 106.41214,38.4553912 L106.41214,70.3409473 C106.41214,85.0631231 94.397106,97.1085396 79.7120643,97.1085396 L27.4003857,97.1085396 C12.715344,97.1085396 0.700309856,85.0631231 0.700309856,70.3409473 L0.700309856,38.4553912 C0.700309856,23.7332154 12.715344,11.6877988 27.4003857,11.6877988 L79.7120643,11.6877988 L79.7120643,11.6877988 Z" id="Stroke-43"></path>
                            <path d="M69.8807566,0.218335944 L69.8807566,11.687357 L64.5612115,11.687357 L64.5612115,5.55222485 L42.5407689,5.55222485 L42.5407689,11.687357 L37.2221138,11.687357 L37.2221138,0.218335944 L69.8807566,0.218335944 L69.8807566,0.218335944 Z" id="Stroke-45"></path>
                        </g>
                    </g>
                </g>
                <g id="heart" transform="translate(52.380952, 60.714286)" sketch:type="MSShapeGroup">
                    <path d="M31.4837851,0.137838166 C28.0490391,0.137838166 24.9226864,1.42696608 22.5396117,3.53164142 C20.1584476,1.42696608 17.032095,0.137838166 13.597349,0.137838166 C6.14393481,0.137838166 0.101028836,6.15135931 0.101028836,13.5704065 C0.101028836,13.6810988 0.116314756,13.7879872 0.119371939,13.8956364 C0.113257572,13.9907329 0.101028836,14.0858294 0.101028836,14.1847297 C0.101028836,26.5187435 22.5396117,41.354175 22.5396117,41.354175 C22.5396117,41.354175 44.9789588,26.5187435 44.9789588,14.1847297 C44.9789588,14.0858294 44.9682586,13.9907329 44.9621443,13.8956364 C44.9652014,13.7879872 44.9789588,13.6810988 44.9789588,13.5704065 C44.9789588,6.15135931 38.9371992,0.137838166 31.4837851,0.137838166 Z" id="Stroke-51" fill="#FFFFFF"></path>
                    <path d="M7.07450444,19.4218437 L10.0534718,19.3253448 L10.0534718,19.4221318 L11.1994508,15.6601156 L12.3462968,11.8986756 L13.4931429,15.6601156 L14.639989,19.4221318 L15.786835,23.1838599 L16.9333921,26.9452999 L18.0793711,23.1838599 L19.2262171,19.4221318 L21.8797438,19.3253448 L22.8682048,16.3863057 L23.7927917,13.3510558 L24.7179566,16.3863057 L25.6434105,19.4221318 L26.5682863,22.4573817 L27.4937402,25.4929197 L28.4194832,22.4573817 L29.344359,19.4221318 L30.0914853,16.9710602 L30.8380335,14.5202766 L31.5857378,16.9710602 L32.3331531,19.4221318 L33.0799904,21.7764165 L33.8268277,24.2272 L34.5739539,21.7764165 L35.3207912,19.3253448 L38.3483145,19.3253448" id="Stroke-53" stroke="#FE5562" stroke-width="1.79425837"></path>
                </g>
            </g>
        </g>
    </g>
</svg>